<svg width="100" height="101" viewBox="0 0 100 101" fill="none" xmlns="http://www.w3.org/2000/svg">
<g clip-path="url(#clip0_70_119)">
<path d="M85.4277 14.6774C76.0271 5.21805 63.5271 0.00577135 50.2093 0C22.7658 0 0.43228 22.4504 0.421293 50.0451C0.418095 58.8659 2.71011 67.4763 7.06661 75.0661L0.0032959 101L26.3965 94.0409C33.6683 98.0287 41.8559 100.13 50.1879 100.133H50.209H50.2093C77.6483 100.133 99.9852 77.6791 99.9968 50.0857C100.001 36.712 94.827 24.1374 85.4277 14.6774ZM50.2093 91.6807H50.1931C42.7664 91.6767 35.4835 89.6717 29.1311 85.8814L27.6193 84.9802L11.957 89.1094L16.1387 73.7596L15.1537 72.1859C11.011 65.5624 8.82403 57.908 8.82715 50.0484C8.83625 27.1125 27.399 8.45314 50.2249 8.45314C61.2785 8.45775 71.6675 12.7902 79.4809 20.6525C87.2939 28.5148 91.5935 38.9665 91.5902 50.0822C91.5806 73.0187 73.0172 91.6807 50.2093 91.6807Z" fill="#E0E0E0"/>
<path d="M2.28876 98.1224L9.02943 73.3732C4.87086 66.13 2.68396 57.9123 2.68658 49.4961C2.69749 23.1624 24.011 1.73816 50.1986 1.73816C62.9087 1.74393 74.838 6.71785 83.8071 15.7453C92.7782 24.7727 97.7157 36.7721 97.7105 49.5335C97.6996 75.8678 76.3848 97.294 50.2005 97.294C50.1986 97.294 50.2018 97.294 50.2005 97.294H50.1793C42.228 97.2914 34.415 95.2843 27.4758 91.4814L2.28876 98.1224Z" fill="url(#paint0_linear_70_119)"/>
<path fill-rule="evenodd" clip-rule="evenodd" d="M37.9061 28.7985C36.985 26.7392 36.0152 26.698 35.1389 26.662C34.4221 26.6311 33.6015 26.633 32.7822 26.633C31.9623 26.633 30.6299 26.9428 29.5032 28.1802C28.3758 29.4176 25.1986 32.4088 25.1986 38.4926C25.1986 44.577 29.6057 50.4559 30.22 51.2817C30.8349 52.1061 38.7273 64.9899 51.2267 69.9465C61.6147 74.0656 63.7286 73.2463 65.9834 73.0402C68.2382 72.834 73.2589 70.0495 74.2838 67.1619C75.3087 64.2749 75.3087 61.8002 75.0013 61.2829C74.6938 60.7676 73.8739 60.4584 72.644 59.8401C71.4141 59.2217 65.3685 56.2298 64.2411 55.8175C63.1137 55.4053 62.2938 55.1992 61.4738 56.4372C60.6539 57.6739 58.2985 60.4584 57.5811 61.2829C56.8636 62.1093 56.1462 62.2124 54.9163 61.594C53.6864 60.9737 49.7258 59.6693 45.0273 55.4567C41.3716 52.1794 38.9035 48.1317 38.186 46.8938C37.4686 45.6571 38.1091 44.9872 38.726 44.3707C39.2782 43.8167 39.9559 42.9272 40.5709 42.2051C41.1845 41.4831 41.3895 40.9678 41.7994 40.1433C42.2094 39.3175 42.0044 38.5955 41.6969 37.9771C41.3895 37.3588 38.9996 31.2436 37.9061 28.7985Z" fill="white"/>
<path d="M85.021 14.5183C75.7283 5.16759 63.3718 0.0152532 50.2069 0.00939941C23.0784 0.00939941 1.00127 22.2021 0.990369 49.48C0.987171 58.1996 3.25287 66.7111 7.55935 74.2138L0.577209 99.8499L26.6674 92.9706C33.8559 96.9126 41.9494 98.99 50.1858 98.9932H50.2067H50.2069C77.331 98.9932 99.4113 76.7967 99.4228 49.5199C99.4274 36.3 94.3124 23.8697 85.021 14.5183ZM50.2069 90.6377H50.1909C42.8494 90.6338 35.6501 88.6519 29.3706 84.905L27.8762 84.0142L12.3937 88.096L16.5273 72.9224L15.5536 71.3668C11.4585 64.8193 9.2966 57.2527 9.2998 49.4833C9.30874 26.8108 27.6584 8.36566 50.2223 8.36566C61.1491 8.37019 71.4187 12.6529 79.1426 20.425C86.8659 28.197 91.116 38.5287 91.1128 49.5169C91.1032 72.19 72.7529 90.6377 50.2069 90.6377Z" fill="white"/>
</g>
<defs>
<linearGradient id="paint0_linear_70_119" x1="49.9997" y1="98.1224" x2="49.9997" y2="1.73832" gradientUnits="userSpaceOnUse">
<stop stop-color="#20B038"/>
<stop offset="1" stop-color="#60D66A"/>
</linearGradient>
<clipPath id="clip0_70_119">
<rect width="100" height="101" fill="white"/>
</clipPath>
</defs>
</svg>
